<mxfile host="app.diagrams.net" modified="2021-08-22T10:16:18.008Z" agent="5.0 (Macintosh; Intel Mac OS X 10_15_7) AppleWebKit/537.36 (KHTML, like Gecko) Chrome/86.0.4240.193 Safari/537.36" etag="AQtHYOEKzQipenRUFfje" version="14.9.8" type="github">
  <diagram id="zdHCvCPNuHsp2AGRRux4" name="Page-1">
    <mxGraphModel dx="946" dy="536" grid="1" gridSize="10" guides="1" tooltips="1" connect="1" arrows="1" fold="1" page="1" pageScale="1" pageWidth="827" pageHeight="1169" math="0" shadow="0">
      <root>
        <mxCell id="0" />
        <mxCell id="1" parent="0" />
        <mxCell id="xQvN0U_T97k1wvJsqNrb-13" style="edgeStyle=none;rounded=0;orthogonalLoop=1;jettySize=auto;html=1;exitX=1;exitY=1;exitDx=0;exitDy=0;entryX=0.317;entryY=0.017;entryDx=0;entryDy=0;entryPerimeter=0;fillColor=#dae8fc;strokeColor=#6c8ebf;" edge="1" parent="1" source="xQvN0U_T97k1wvJsqNrb-1" target="xQvN0U_T97k1wvJsqNrb-3">
          <mxGeometry relative="1" as="geometry" />
        </mxCell>
        <mxCell id="xQvN0U_T97k1wvJsqNrb-14" style="edgeStyle=none;rounded=0;orthogonalLoop=1;jettySize=auto;html=1;exitX=0;exitY=1;exitDx=0;exitDy=0;entryX=0.767;entryY=0.033;entryDx=0;entryDy=0;entryPerimeter=0;fillColor=#dae8fc;strokeColor=#6c8ebf;" edge="1" parent="1" source="xQvN0U_T97k1wvJsqNrb-1" target="xQvN0U_T97k1wvJsqNrb-2">
          <mxGeometry relative="1" as="geometry" />
        </mxCell>
        <mxCell id="xQvN0U_T97k1wvJsqNrb-1" value="A" style="ellipse;whiteSpace=wrap;html=1;aspect=fixed;fillColor=#dae8fc;strokeColor=#6c8ebf;" vertex="1" parent="1">
          <mxGeometry x="260" y="110" width="60" height="60" as="geometry" />
        </mxCell>
        <mxCell id="xQvN0U_T97k1wvJsqNrb-8" style="edgeStyle=none;rounded=0;orthogonalLoop=1;jettySize=auto;html=1;exitX=0;exitY=1;exitDx=0;exitDy=0;fillColor=#dae8fc;strokeColor=#6c8ebf;" edge="1" parent="1" source="xQvN0U_T97k1wvJsqNrb-2" target="xQvN0U_T97k1wvJsqNrb-4">
          <mxGeometry relative="1" as="geometry" />
        </mxCell>
        <mxCell id="xQvN0U_T97k1wvJsqNrb-9" style="edgeStyle=none;rounded=0;orthogonalLoop=1;jettySize=auto;html=1;exitX=1;exitY=1;exitDx=0;exitDy=0;entryX=0.5;entryY=0;entryDx=0;entryDy=0;fillColor=#dae8fc;strokeColor=#6c8ebf;" edge="1" parent="1" source="xQvN0U_T97k1wvJsqNrb-2" target="xQvN0U_T97k1wvJsqNrb-5">
          <mxGeometry relative="1" as="geometry" />
        </mxCell>
        <mxCell id="xQvN0U_T97k1wvJsqNrb-2" value="B" style="ellipse;whiteSpace=wrap;html=1;aspect=fixed;fillColor=#dae8fc;strokeColor=#6c8ebf;" vertex="1" parent="1">
          <mxGeometry x="180" y="220" width="60" height="60" as="geometry" />
        </mxCell>
        <mxCell id="xQvN0U_T97k1wvJsqNrb-11" style="edgeStyle=none;rounded=0;orthogonalLoop=1;jettySize=auto;html=1;exitX=1;exitY=1;exitDx=0;exitDy=0;fillColor=#dae8fc;strokeColor=#6c8ebf;" edge="1" parent="1" source="xQvN0U_T97k1wvJsqNrb-3" target="xQvN0U_T97k1wvJsqNrb-6">
          <mxGeometry relative="1" as="geometry" />
        </mxCell>
        <mxCell id="xQvN0U_T97k1wvJsqNrb-3" value="E" style="ellipse;whiteSpace=wrap;html=1;aspect=fixed;fillColor=#dae8fc;strokeColor=#6c8ebf;" vertex="1" parent="1">
          <mxGeometry x="320" y="220" width="60" height="60" as="geometry" />
        </mxCell>
        <mxCell id="xQvN0U_T97k1wvJsqNrb-4" value="C" style="ellipse;whiteSpace=wrap;html=1;aspect=fixed;fillColor=#dae8fc;strokeColor=#6c8ebf;" vertex="1" parent="1">
          <mxGeometry x="100" y="320" width="60" height="60" as="geometry" />
        </mxCell>
        <mxCell id="xQvN0U_T97k1wvJsqNrb-5" value="D" style="ellipse;whiteSpace=wrap;html=1;aspect=fixed;fillColor=#dae8fc;strokeColor=#6c8ebf;" vertex="1" parent="1">
          <mxGeometry x="220" y="320" width="60" height="60" as="geometry" />
        </mxCell>
        <mxCell id="xQvN0U_T97k1wvJsqNrb-6" value="F" style="ellipse;whiteSpace=wrap;html=1;aspect=fixed;fillColor=#dae8fc;strokeColor=#6c8ebf;" vertex="1" parent="1">
          <mxGeometry x="380" y="320" width="60" height="60" as="geometry" />
        </mxCell>
      </root>
    </mxGraphModel>
  </diagram>
</mxfile>
